<svg xmlns="http://www.w3.org/2000/svg" xmlns:xlink="http://www.w3.org/1999/xlink" width="16" height="12" viewBox="0 0 16 12"><defs><path id="a" d="M223.05 87.34c-1.16-1.43-3.34-3.13-7.19-3.28v-2.65c0-.16-.09-.3-.23-.37a.38.38 0 0 0-.42.05l-6.06 5.08a.4.4 0 0 0-.01.62l6.06 5.1c.12.1.29.12.43.05a.4.4 0 0 0 .23-.37v-2.64c2.51.01 6.35.2 8.39 3.85a.4.4 0 0 0 .35.21l.1-.01a.4.4 0 0 0 .3-.4c0-1.36-.51-3.45-1.95-5.24z"/></defs><g transform="translate(-209 -81)"><use fill="#b1cb00" xlink:href="#a"/></g></svg>