<svg xmlns="http://www.w3.org/2000/svg" xmlns:xlink="http://www.w3.org/1999/xlink" width="52" height="36" viewBox="0 0 52 36"><defs><path id="a" d="M371 2269h27v36h-27z"/><path id="b" d="M396 2269h27v36h-27z"/><path id="e" d="M400 2289v-1h11.93v1z"/><path id="f" d="M414 2290v-2h5v2z"/><path id="g" d="M414 2293v-2h5v2z"/><path id="h" d="M414 2286v-5h5v5z"/><path id="i" d="M407 2286v-5h5v5z"/><path id="j" d="M400 2286v-5h5v5z"/><path id="k" d="M414 2295v-1h4.99v1z"/><path id="l" d="M414 2297v-1h4.99v1z"/><path id="m" d="M414 2299v-1h4.99v1z"/><path id="n" d="M414 2301v-1h4.99v1z"/><path id="o" d="M400 2291v-1h11.93v1z"/><path id="p" d="M400 2293v-1h11.93v1z"/><path id="q" d="M400 2295v-1h11.93v1z"/><path id="r" d="M400 2301v-1h11.93v1z"/><path id="s" d="M400 2299v-1h11.93v1z"/><path id="t" d="M400 2297v-1h11.93v1z"/><path id="u" d="M384.57 2295.1a8.55 8.55 0 1 0 .01-17.1 8.55 8.55 0 0 0-.01 17.1"/><path id="v" d="M383.84 2284.22V2283h-2.76l-1.08 1.08v7.91h1.28v-3.83h2.24v-1.22h-2.24v-2.72h2.56"/><path id="w" d="M388.84 2283.22V2282h-2.76l-1.08 1.08v7.91h1.28v-3.83h2.24v-1.22h-2.24v-2.72h2.56"/><path id="x" d="M415.69 2273.81v-.81h-1.93l-.76.72v5.27h.89v-2.55h1.57v-.81h-1.57v-1.82h1.8"/><path id="y" d="M419.69 2273.81v-.81h-1.93l-.76.72v5.27h.89v-2.55h1.57v-.81h-1.57v-1.82h1.8"/><path id="z" d="M400 2275v-2h8.99v2z"/><clipPath id="c"><use fill="#fff" xlink:href="#a"/></clipPath><clipPath id="d"><use fill="#fff" xlink:href="#b"/></clipPath></defs><g transform="translate(-371 -2269)"><use fill="#efefef" xlink:href="#a"/><use fill="#fff" fill-opacity="0" stroke="#d2d2d2" stroke-miterlimit="50" stroke-width="4" clip-path="url(&quot;#c&quot;)" xlink:href="#a"/><use fill="#efefef" xlink:href="#b"/><use fill="#fff" fill-opacity="0" stroke="#d2d2d2" stroke-miterlimit="50" stroke-width="4" clip-path="url(&quot;#d&quot;)" xlink:href="#b"/><use fill="#cfcfcf" xlink:href="#e"/><use fill="#cfcfcf" xlink:href="#f"/><use fill="#cfcfcf" xlink:href="#g"/><use fill="#dadada" xlink:href="#h"/><use fill="#dadada" xlink:href="#i"/><use fill="#dadada" xlink:href="#j"/><use fill="#bcbcbc" xlink:href="#k"/><use fill="#bcbcbc" xlink:href="#l"/><use fill="#bcbcbc" xlink:href="#m"/><g><use fill="#bcbcbc" xlink:href="#n"/></g><g><use fill="#cfcfcf" xlink:href="#o"/></g><g><use fill="#cfcfcf" xlink:href="#p"/></g><g><use fill="#cfcfcf" xlink:href="#q"/></g><g><use fill="#a8a8a8" xlink:href="#r"/></g><g><use fill="#a8a8a8" xlink:href="#s"/></g><g><use fill="#a8a8a8" xlink:href="#t"/></g><g><use fill="#aeafae" xlink:href="#u"/></g><g><use fill="#efefef" xlink:href="#v"/></g><g><use fill="#efefef" xlink:href="#w"/></g><g><use fill="#b7b7b7" xlink:href="#x"/></g><g><use fill="#b7b7b7" xlink:href="#y"/></g><g><use fill="#bcbcbc" xlink:href="#z"/></g></g></svg>