<svg xmlns="http://www.w3.org/2000/svg" xmlns:xlink="http://www.w3.org/1999/xlink" width="7" height="10" viewBox="0 0 7 10"><defs><path id="a" d="M322.74 359.13a.24.24 0 0 1 .33 0l2.73 2.73c.09.09.09.24 0 .33l-.61.61a.24.24 0 0 1-.33 0l-1.95-1.95-1.96 1.95a.24.24 0 0 1-.33 0l-.61-.61a.24.24 0 0 1 0-.33z"/><path id="b" d="M323.07 368.8a.24.24 0 0 1-.33 0l-2.73-2.73a.24.24 0 0 1 0-.33l.61-.61a.24.24 0 0 1 .33 0l1.95 1.95 1.96-1.95a.24.24 0 0 1 .33 0l.61.61c.09.09.09.24 0 .33z"/></defs><g transform="translate(-319 -359)"><use fill="#929292" xlink:href="#a"/><g><use fill="#929292" xlink:href="#b"/></g></g></svg>