<svg xmlns="http://www.w3.org/2000/svg" xmlns:xlink="http://www.w3.org/1999/xlink" width="19" height="19" viewBox="0 0 19 19"><defs><path id="a" d="M374 6817v-19h19v19zm9.5-2a7.5 7.5 0 1 0 0-15 7.5 7.5 0 0 0 0 15z"/><path id="b" d="M376 6807.5a7.5 7.5 0 1 1 15 0 7.5 7.5 0 0 1-15 0z"/><path id="d" d="M385 6811.51a1.5 1.5 0 0 0-1.5-1.51c-.83 0-1.5.68-1.5 1.51s.67 1.51 1.5 1.51 1.5-.68 1.5-1.51zm.02-3.98v-4.83a.7.7 0 0 0-.71-.7h-1.59a.7.7 0 0 0-.72.7v4.83c0 .81.68 1.47 1.51 1.47a1.5 1.5 0 0 0 1.51-1.47z"/><clipPath id="c"><use fill="#fff" xlink:href="#a"/></clipPath></defs><g transform="translate(-374 -6798)"><use fill="red" xlink:href="#b"/><use fill="#fff" fill-opacity="0" stroke="#fff" stroke-miterlimit="50" stroke-width="4" clip-path="url(&quot;#c&quot;)" xlink:href="#b"/><g><use fill="#fff" xlink:href="#d"/><use fill="#fff" fill-opacity="0" stroke-miterlimit="50" stroke-width="0" xlink:href="#d"/></g></g></svg>