<svg xmlns="http://www.w3.org/2000/svg" xmlns:xlink="http://www.w3.org/1999/xlink" width="43" height="43" viewBox="0 0 43 43"><defs><path id="a" d="M276 595h-21v-1.01c0-1.16.64-2.22 1.67-2.78l4.99-2.19a2.1 2.1 0 0 0 1.1-1.84v-1.81l-.09-.11-.09-.11-.09-.13a5.25 5.25 0 0 1-.25-.36l-.15-.24a10.4 10.4 0 0 1-.33-.59l-.18-.36-.1-.23-.02-.07-.08-.19-.13-.38-.02-.08c-.06-.17-.1-.32-.13-.47l-.04-.17-.16-.1a.92.92 0 0 1-.42-.76v-1.8c0-.26.11-.49.3-.67l.15-.13v-2.97c-.02-.34 0-1.33.73-2.17.76-.85 2.05-1.28 3.84-1.28 1.78 0 3.07.43 3.83 1.28.89.99.74 2.26.74 2.27v2.87l.15.13c.19.18.3.41.3.67v1.8a.9.9 0 0 1-.65.86l-.22.07-.08.22a9.25 9.25 0 0 1-1.67 3.06l-.12.13v1.86c0 .8.45 1.52 1.17 1.87l5.28 2.16a3.14 3.14 0 0 1 1.77 2.83z"/><path id="b" d="M245 584.5a20.5 20.5 0 1 1 41 0 20.5 20.5 0 0 1-41 0z"/></defs><g transform="translate(-244 -563)"><use fill="#fff" fill-opacity="0" stroke="#fff" stroke-miterlimit="50" stroke-width="1.5" xlink:href="#a"/><g><use fill="#fff" fill-opacity="0" stroke="#fff" stroke-miterlimit="50" stroke-width="1.5" xlink:href="#b"/></g></g></svg>