<?xml version="1.0" encoding="UTF-8"?>
<svg width="21px" height="23px" viewBox="0 0 21 23" version="1.1" xmlns="http://www.w3.org/2000/svg" xmlns:xlink="http://www.w3.org/1999/xlink">
    <!-- Generator: Sketch 46.2 (44496) - http://www.bohemiancoding.com/sketch -->
    <title>log-out</title>
    <desc>Created with Sketch.</desc>
    <defs></defs>
    <g id="DESIGN" stroke="none" stroke-width="1" fill="none" fill-rule="evenodd">
        <g id="X_UI-Assets" transform="translate(-712.000000, -728.000000)" stroke="#222222" fill="#222222">
            <g id="log-out" transform="translate(713.000000, 729.000000)">
                <path d="M0.609882432,0 L13.352311,0 C13.6891729,0 13.962246,0.259151735 13.962246,0.578729 C13.962246,0.898455834 13.6891729,1.15755771 13.352311,1.15755771 L1.21986995,1.15755771 L1.21986995,20.2590548 L13.352311,20.2590548 C13.6891729,20.2590548 13.962246,20.5181068 13.962246,20.8379334 C13.962246,21.1574109 13.6891729,21.4165627 13.352311,21.4165627 L0.609882432,21.4165627 C0.273073059,21.4165627 0,21.1574109 0,20.8379334 L0,0.578778857 C0,0.578778857 0,0 0.609882432,0 Z" id="Shape"></path>
                <path d="M14.2894757,14.3082734 C14.051187,14.5344204 14.051187,14.9007128 14.2894757,15.1268598 C14.4086463,15.2398835 14.5648082,15.2963704 14.7209175,15.2963704 C14.8769217,15.2963704 15.0329259,15.2397838 15.1520965,15.1268598 L18.913695,11.5577651 C19.1520362,11.3316679 19.1520362,10.965226 18.913695,10.7392784 L15.1520965,7.16968506 C14.9138604,6.94343831 14.5277644,6.94343831 14.2894757,7.16968506 C14.051187,7.39543324 14.051187,7.76202476 14.2894757,7.98802222 L17.00975,10.5696182 L5.61004006,10.5696182 C5.27317815,10.5695684 5,10.8288198 5,11.1483971 C5,11.4680741 5.27317815,11.7272756 5.61004006,11.7272756 L17.00975,11.7272756 L14.2894757,14.3082734 Z" id="Shape"></path>
            </g>
        </g>
    </g>
</svg>