<?xml version="1.0" encoding="UTF-8"?>
<svg width="18px" height="19px" viewBox="0 0 18 19" version="1.1" xmlns="http://www.w3.org/2000/svg" xmlns:xlink="http://www.w3.org/1999/xlink">
    <!-- Generator: Sketch 46.2 (44496) - http://www.bohemiancoding.com/sketch -->
    <title>login</title>
    <desc>Created with Sketch.</desc>
    <defs></defs>
    <g id="Symbols" stroke="none" stroke-width="1" fill="none" fill-rule="evenodd">
        <g id="login" transform="translate(1.000000, 1.000000)" fill="#FFFFFF" stroke="#FFFFFF">
            <g id="Shape">
                <path d="M15.5060833,0.0036372093 L5.40158333,0.0036372093 C5.13445833,0.0036372093 4.91791667,0.209139535 4.91791667,0.46255814 C4.91791667,0.716095349 5.13445833,0.92155814 5.40158333,0.92155814 L15.022375,0.92155814 L15.022375,16.0686767 L5.40158333,16.0686767 C5.13445833,16.0686767 4.91791667,16.2741 4.91791667,16.5277163 C4.91791667,16.7810558 5.13445833,16.9865581 5.40158333,16.9865581 L15.5060833,16.9865581 C15.7731667,16.9865581 15.9897083,16.7810558 15.9897083,16.5277163 L15.9897083,0.462597674 C15.98975,0.20917907 15.7732083,0.0036372093 15.5060833,0.0036372093 Z"></path>
                <path d="M7.366375,11.2836512 C7.17741667,11.4629814 7.17741667,11.7534442 7.366375,11.9327744 C7.460875,12.0224 7.58470833,12.067193 7.7085,12.067193 C7.83220833,12.067193 7.95591667,12.0223209 8.05041667,11.9327744 L11.0332917,9.10255116 C11.2222917,8.92326047 11.2222917,8.63267907 11.0332917,8.45350698 L8.05041667,5.62288837 C7.8615,5.44347907 7.55533333,5.44347907 7.366375,5.62288837 C7.17741667,5.80190233 7.17741667,6.09260233 7.366375,6.27181395 L9.5235,8.31896977 L0.48375,8.31896977 C0.216625,8.31893023 0,8.52451163 0,8.77793023 C0,9.03142791 0.216625,9.23696977 0.48375,9.23696977 L9.5235,9.23696977 L7.366375,11.2836512 Z"></path>
            </g>
        </g>
    </g>
</svg>