<svg xmlns="http://www.w3.org/2000/svg" xmlns:xlink="http://www.w3.org/1999/xlink" width="155" height="196" viewBox="0 0 155 196"><defs><path id="a" d="M1066 660a95 95 0 1 1 190 0 95 95 0 0 1-190 0z"/><path id="b" d="M1203.89 624.34v68.37c0 4.6-3.66 8.34-8.15 8.34a8.26 8.26 0 0 1-8.15-8.34v-3.78l-24.22-7.86a6.61 6.61 0 0 1-6.31 8.31 6.3 6.3 0 0 1-2-.33l-23.26-7.71a6.5 6.5 0 0 1-3.79-3.31 6.63 6.63 0 0 1 1.46-7.96l-5.49-1.78a6.57 6.57 0 0 1-6.46 6.08c-3.6 0-6.52-3-6.52-6.67v-18.35a6.6 6.6 0 0 1 6.52-6.67 6.57 6.57 0 0 1 6.46 6.08l63.61-20.64v-3.78c0-4.6 3.66-8.34 8.15-8.34a8.26 8.26 0 0 1 8.15 8.34zm-45.82 55.19l-23.25-7.71a3.28 3.28 0 0 0-4.11 2.15 3.4 3.4 0 0 0 2.1 4.2l23.26 7.71c.82.27 1.7.2 2.48-.21a3.36 3.36 0 0 0-.48-6.14zm-37.29-30.18a3.3 3.3 0 0 0-3.26-3.33 3.3 3.3 0 0 0-3.26 3.33v18.35a3.3 3.3 0 0 0 3.26 3.33 3.3 3.3 0 0 0 3.26-3.33zm66.81 36.08v-53.81l-63.55 20.62v12.57zm13.04-61.09c0-2.76-2.19-5-4.89-5a4.95 4.95 0 0 0-4.89 5v68.37c0 2.76 2.2 5 4.89 5 2.7 0 4.89-2.24 4.89-5z"/></defs><g opacity=".2" transform="translate(-1063 -562)"><use fill="#fff" fill-opacity="0" stroke="#fff" stroke-miterlimit="50" stroke-width="4.5" xlink:href="#a"/></g><g opacity=".2" transform="translate(-1063 -562)"><use fill="#fff" xlink:href="#b"/><use fill="#fff" fill-opacity="0" stroke="#fff" stroke-miterlimit="50" xlink:href="#b"/></g></svg>