<?xml version="1.0" encoding="UTF-8"?>
<svg width="111px" height="31px" viewBox="0 0 111 31" version="1.1" xmlns="http://www.w3.org/2000/svg" xmlns:xlink="http://www.w3.org/1999/xlink">
    <!-- Generator: Sketch 46.2 (44496) - http://www.bohemiancoding.com/sketch -->
    <title>logo_proffile_weiß</title>
    <desc>Created with Sketch.</desc>
    <defs></defs>
    <g id="Symbols" stroke="none" stroke-width="1" fill="none" fill-rule="evenodd">
        <g id="logo_proffile_white">
            <g id="logo_proffile_weiß">
                <path d="M0.00867901235,8.01760294 L4.79218519,8.01760294 C6.54260494,8.01760294 7.82390123,8.42288235 8.91837037,9.57808824 C10.0128395,10.7314706 10.3563457,12.1355882 10.3563457,14.7879118 C10.3563457,16.7226765 10.2001235,18.0324265 9.45053086,19.2491765 C8.57440741,20.6842941 7.16749383,21.5582206 4.82279012,21.5582206 L3.19753086,21.5582206 L3.19753086,30.2313824 L0.00867901235,30.2313824 L0.00867901235,8.01760294 Z M3.19753086,18.5626176 L4.72869136,18.5626176 C7.32417284,18.5626176 7.35523457,17.0340441 7.35523457,14.8189118 C7.35523457,12.7296029 7.35523457,11.01275 4.85385185,11.01275 L3.19753086,11.01275 L3.19753086,18.5626176 L3.19753086,18.5626176 Z" id="Fill-1" fill="#FFFFFE"></path>
                <path d="M12.7334815,8.01760294 L17.8595802,8.01760294 C21.6422593,8.01760294 23.4867778,10.2327353 23.4867778,14.5376324 C23.4867778,17.0965 22.7687037,18.9674412 20.7355309,20.0911912 L24.1747037,30.2313824 L20.7990247,30.2313824 L17.8280617,20.7472059 L15.9218765,20.7472059 L15.9218765,30.2313824 L12.7334815,30.2313824 L12.7334815,8.01760294 Z M15.9218765,17.9385147 L17.7344198,17.9385147 C19.9548765,17.9385147 20.2983827,16.6907647 20.2983827,14.4756324 C20.2983827,12.2290441 19.9229012,11.01275 17.5791111,11.01275 L15.9218765,11.01275 L15.9218765,17.9385147 L15.9218765,17.9385147 Z" id="Fill-2" fill="#FFFFFE"></path>
                <path d="M25.8634568,13.44625 C25.8634568,9.82791176 28.6137901,8.01760294 31.2097284,8.01760294 C33.8033827,8.01760294 36.556,9.82791176 36.556,13.44625 L36.556,25.1770147 C36.556,28.7967206 33.8033827,30.6065735 31.2097284,30.6065735 C28.6137901,30.6065735 25.8634568,28.7967206 25.8634568,25.1770147 L25.8634568,13.44625 Z M29.0527654,25.1770147 C29.0527654,26.7069559 30.052679,27.4240588 31.2097284,27.4240588 C32.3658642,27.4240588 33.3662346,26.7069559 33.3662346,25.1770147 L33.3662346,13.44625 C33.3662346,11.9176765 32.3658642,11.2005735 31.2097284,11.2005735 C30.052679,11.2005735 29.0527654,11.9176765 29.0527654,13.44625 L29.0527654,25.1770147 L29.0527654,25.1770147 Z" id="Fill-3" fill="#FFFFFE"></path>
                <polygon id="Fill-4" fill="#FFFFFE" points="63.7761235 30.2313824 66.9645185 30.2313824 66.9645185 8.01760294 63.7761235 8.01760294"></polygon>
                <polyline id="Fill-5" fill="#FFFFFE" points="70.060642 8.01760294 73.2485802 8.01760294 73.2485802 27.0497794 79.5627901 27.0497794 79.5627901 30.2313824 70.060642 30.2313824 70.060642 8.01760294"></polyline>
                <polyline id="Fill-6" fill="#FFFFFE" points="81.6274815 8.01760294 91.1314568 8.01760294 91.1314568 11.01275 84.8154198 11.01275 84.8154198 17.5336912 90.319284 17.5336912 90.319284 20.5283824 84.8154198 20.5283824 84.8154198 27.0497794 91.1314568 27.0497794 91.1314568 30.2313824 81.6274815 30.2313824 81.6274815 8.01760294"></polyline>
                <polyline id="Fill-7" fill="#FFFFFE" points="49.2305556 11.0323529 49.2305556 8.01760294 42.4070247 8.01760294 39.7279506 10.6913529 39.7279506 30.2318382 42.8884815 30.2318382 42.8884815 20.7813971 48.4179259 20.7813971 48.4179259 17.7520588 42.8884815 17.7520588 42.8884815 11.0323529 49.2305556 11.0323529"></polyline>
                <polyline id="Fill-8" fill="#FFFFFE" points="61.2920988 11.0323529 61.2920988 8.01760294 54.4685679 8.01760294 51.7894938 10.6913529 51.7894938 30.2318382 54.9500247 30.2318382 54.9500247 20.7813971 60.4794691 20.7813971 60.4794691 17.7520588 54.9500247 17.7520588 54.9500247 11.0323529 61.2920988 11.0323529"></polyline>
                <path d="M103.25421,15.61625 C107.458963,15.61625 110.867988,12.2144559 110.867988,8.01760294 C110.867988,3.82075 107.458963,0.418955882 103.25421,0.418955882 C99.0494568,0.418955882 95.6404321,3.82075 95.6404321,8.01760294 C95.6404321,12.2144559 99.0494568,15.61625 103.25421,15.61625" id="Fill-9" fill="#ABCC3A"></path>
                <polyline id="Fill-10" fill="#172F48" points="102.988815 5.17791176 102.988815 4.09382353 100.534481 4.09382353 99.5711111 5.05527941 99.5711111 12.0831618 100.707605 12.0831618 100.707605 8.68410294 102.696469 8.68410294 102.696469 7.59454412 100.707605 7.59454412 100.707605 5.17791176 102.988815 5.17791176"></polyline>
                <polyline id="Fill-11" fill="#172F48" points="107.326951 5.06394118 107.326951 3.97985294 104.872617 3.97985294 103.909247 4.94130882 103.909247 11.9691912 105.045741 11.9691912 105.045741 8.57013235 107.034605 8.57013235 107.034605 7.48057353 105.045741 7.48057353 105.045741 5.06394118 107.326951 5.06394118"></polyline>
            </g>
        </g>
    </g>
</svg>