<?xml version="1.0" encoding="UTF-8"?>
<svg width="29px" height="22px" viewBox="0 0 29 22" version="1.1" xmlns="http://www.w3.org/2000/svg" xmlns:xlink="http://www.w3.org/1999/xlink">
    <!-- Generator: Sketch 46.2 (44496) - http://www.bohemiancoding.com/sketch -->
    <title>user</title>
    <desc>Created with Sketch.</desc>
    <defs></defs>
    <g id="-" stroke="none" stroke-width="1" fill="none" fill-rule="evenodd">
        <g id="8_1_-Desktop-HD-STELLENANZEIGEN" transform="translate(-1231.000000, -20.000000)" fill-rule="nonzero" fill="#222222">
            <g id="HEADER">
                <g id="META" transform="translate(1231.000000, 19.000000)">
                    <g id="user" transform="translate(0.000000, 1.000000)">
                        <path d="M28.58646,19.5695633 C27.97282,16.4267473 19.52802,16.7609179 17.4928,14.2993956 C17.0636,13.7798624 17.0636,13.7798624 17.35128,11.8508255 C17.84254,9.69152471 18.28769,11.0316613 18.99007,6.72486066 C19.57993,3.10798859 18.32133,0 14.5,0 C10.67867,0 9.42007,3.10798859 10.00993,6.72486066 C10.71231,11.0316613 11.15717,9.69152471 11.64872,11.8508255 C11.9364,13.7798624 11.9364,13.7798624 11.5072,14.2993956 C9.47198,16.7609179 1.02718,16.4267473 0.41354,19.5695633 C0.34075,19.9414397 0,22 0,22 L29,22 C29,22 28.65925,19.9414397 28.58646,19.5695633 Z" id="Shape"></path>
                    </g>
                </g>
            </g>
        </g>
    </g>
</svg>