<svg xmlns="http://www.w3.org/2000/svg" xmlns:xlink="http://www.w3.org/1999/xlink" width="52" height="36" viewBox="0 0 52 36"><defs><path id="a" d="M371 2169h27v36h-27z"/><path id="b" d="M396 2169h27v36h-27z"/><path id="e" d="M400 2189v-1h18.96v1z"/><path id="f" d="M414 2186v-5h5v5z"/><path id="g" d="M407 2186v-5h5v5z"/><path id="h" d="M400 2186v-5h5v5z"/><path id="i" d="M400 2191v-1h18.96v1z"/><path id="j" d="M400 2193v-1h18.96v1z"/><path id="k" d="M400 2195v-1h18.96v1z"/><path id="l" d="M400 2201v-1h19.06v1z"/><path id="m" d="M400 2199v-1h19.06v1z"/><path id="n" d="M400 2197v-1h19.06v1z"/><path id="o" d="M375 2189v-1h11.98v1z"/><path id="p" d="M389 2186v-5h5v5z"/><path id="q" d="M382 2186v-5h5v5z"/><path id="r" d="M375 2186v-5h5v5z"/><path id="s" d="M375 2191v-1h11.98v1z"/><path id="t" d="M389 2190v-2h5v2z"/><path id="u" d="M389 2193v-2h5v2z"/><path id="v" d="M375 2193v-1h11.98v1z"/><path id="w" d="M375 2195v-1h19.04v1z"/><path id="x" d="M375 2201v-1h19.04v1z"/><path id="y" d="M375 2199v-1h19.04v1z"/><path id="z" d="M375 2197v-1h19.04v1z"/><path id="A" d="M377.69 2173.81v-.81h-1.93l-.76.72v5.27h.89v-2.55h1.57v-.81h-1.57v-1.82h1.8"/><path id="B" d="M381.69 2173.81v-.81h-1.93l-.76.72v5.27h.89v-2.55h1.57v-.81h-1.57v-1.82h1.8"/><path id="C" d="M383 2175v-2h8.99v2z"/><clipPath id="c"><use fill="#fff" xlink:href="#a"/></clipPath><clipPath id="d"><use fill="#fff" xlink:href="#b"/></clipPath></defs><g transform="translate(-371 -2169)"><use fill="#efefef" xlink:href="#a"/><use fill="#fff" fill-opacity="0" stroke="#d2d2d2" stroke-miterlimit="50" stroke-width="4" clip-path="url(&quot;#c&quot;)" xlink:href="#a"/><use fill="#efefef" xlink:href="#b"/><use fill="#fff" fill-opacity="0" stroke="#d2d2d2" stroke-miterlimit="50" stroke-width="4" clip-path="url(&quot;#d&quot;)" xlink:href="#b"/><use fill="#bcbcbc" xlink:href="#e"/><use fill="#dadada" xlink:href="#f"/><use fill="#dadada" xlink:href="#g"/><use fill="#dadada" xlink:href="#h"/><use fill="#bcbcbc" xlink:href="#i"/><use fill="#bcbcbc" xlink:href="#j"/><use fill="#bcbcbc" xlink:href="#k"/><use fill="#a8a8a8" xlink:href="#l"/><use fill="#a8a8a8" xlink:href="#m"/><use fill="#a8a8a8" xlink:href="#n"/><use fill="#cfcfcf" xlink:href="#o"/><use fill="#dadada" xlink:href="#p"/><use fill="#dadada" xlink:href="#q"/><use fill="#dadada" xlink:href="#r"/><use fill="#cfcfcf" xlink:href="#s"/><use fill="#cfcfcf" xlink:href="#t"/><use fill="#cfcfcf" xlink:href="#u"/><use fill="#cfcfcf" xlink:href="#v"/><use fill="#cfcfcf" xlink:href="#w"/><use fill="#a8a8a8" xlink:href="#x"/><use fill="#a8a8a8" xlink:href="#y"/><use fill="#a8a8a8" xlink:href="#z"/><use fill="#b7b7b7" xlink:href="#A"/><use fill="#b7b7b7" xlink:href="#B"/><use fill="#bcbcbc" xlink:href="#C"/></g></svg>