<svg xmlns="http://www.w3.org/2000/svg" xmlns:xlink="http://www.w3.org/1999/xlink" width="16" height="16" viewBox="0 0 16 16"><defs><path id="a" d="M783.91 247.97c.06.07.09.15.09.24s-.03.17-.09.24l-1.46 1.46a.36.36 0 0 1-.24.09.36.36 0 0 1-.24-.09l-4.01-4.01a6.29 6.29 0 0 1-3.49 1.04 6.2 6.2 0 0 1-4.57-1.9 6.2 6.2 0 0 1-1.9-4.57 6.2 6.2 0 0 1 1.9-4.57 6.2 6.2 0 0 1 4.57-1.9 6.2 6.2 0 0 1 4.57 1.9 6.2 6.2 0 0 1 1.9 4.57c0 1.26-.35 2.43-1.04 3.49zm-4.01-4.01s.69-1.06 0 0zm-9.85-3.49c0 1.21.43 2.25 1.29 3.11.87.87 1.91 1.3 3.13 1.3s2.26-.43 3.12-1.29a4.25 4.25 0 0 0 1.29-3.12c0-1.22-.43-2.26-1.29-3.12a4.25 4.25 0 0 0-3.12-1.29c-1.22 0-2.26.43-3.13 1.3a4.24 4.24 0 0 0-1.29 3.11z"/></defs><use fill="#fff" xlink:href="#a" transform="translate(-768 -234)"/></svg>