<svg xmlns="http://www.w3.org/2000/svg" xmlns:xlink="http://www.w3.org/1999/xlink" width="19" height="17" viewBox="0 0 19 17"><defs><path id="a" d="M609 950.47c0 3.05-2.67 5.53-5.95 5.53a6.1 6.1 0 0 1-4.67-2.11h-5.53c-.47 0-.85-.35-.85-.79V945h11.9c2.88.38 5.1 2.69 5.1 5.47zm-1.7 0c0-2.18-1.91-3.95-4.25-3.95s-4.25 1.77-4.25 3.95 1.91 3.95 4.25 3.95 4.25-1.77 4.25-3.95z"/><path id="b" d="M590.83 944a.84.84 0 0 1 0-1.67h2.5v-2.5c0-.46.38-.83.84-.83h6.66c.46 0 .84.37.84.83v2.5h2.5a.84.84 0 0 1 0 1.67zm4.17-1.67h5v-1.66h-5z"/><path id="c" d="M604.76 949.24a.83.83 0 0 0-1.17 0l-.59.59-.59-.59a.83.83 0 0 0-1.17 0 .83.83 0 0 0 0 1.17l.59.59-.59.59a.83.83 0 0 0 0 1.17c.16.16.38.24.59.24.21 0 .42-.08.58-.24l.59-.59.59.59c.16.16.37.24.58.24.21 0 .43-.08.59-.24a.83.83 0 0 0 0-1.17l-.59-.59.59-.59a.83.83 0 0 0 0-1.17z"/></defs><g transform="translate(-590 -939)" fill="#b1cb00"><use xlink:href="#a"/><use xlink:href="#b"/><use xlink:href="#c"/></g></svg>