<svg xmlns="http://www.w3.org/2000/svg" xmlns:xlink="http://www.w3.org/1999/xlink" width="52" height="36" viewBox="0 0 52 36"><defs><path id="a" d="M371 2219h27v36h-27z"/><path id="b" d="M396 2219h27v36h-27z"/><path id="e" d="M375 2239v-1h11.93v1z"/><path id="f" d="M383 2225v-2h8.99v2z"/><path id="g" d="M389 2236v-5h5v5z"/><path id="h" d="M382 2236v-5h5v5z"/><path id="i" d="M375 2236v-5h5v5z"/><path id="j" d="M389 2247v-1h4.99v1z"/><path id="k" d="M389 2245v-1h4.99v1z"/><path id="l" d="M389 2249v-1h4.99v1z"/><path id="m" d="M389 2251v-1h4.99v1z"/><path id="n" d="M375 2241v-1h11.93v1z"/><path id="o" d="M375 2243v-1h11.93v1z"/><path id="p" d="M375 2245v-1h11.93v1z"/><path id="q" d="M375 2251v-1h11.93v1z"/><path id="r" d="M375 2249v-1h11.93v1z"/><path id="s" d="M375 2247v-1h11.93v1z"/><path id="t" d="M409.57 2245.1a8.55 8.55 0 1 0 .01-17.1 8.55 8.55 0 0 0-.01 17.1"/><path id="u" d="M408.84 2234.22V2233h-2.76l-1.08 1.08v7.91h1.28v-3.83h2.24v-1.22h-2.24v-2.72h2.56"/><path id="v" d="M413.84 2233.22V2232h-2.76l-1.08 1.08v7.91h1.28v-3.83h2.24v-1.22h-2.24v-2.72h2.56"/><path id="w" d="M377.69 2223.81v-.81h-1.93l-.76.72v5.27h.89v-2.55h1.57v-.81h-1.57v-1.82h1.8"/><path id="x" d="M381.69 2223.81v-.81h-1.93l-.76.72v5.27h.89v-2.55h1.57v-.81h-1.57v-1.82h1.8"/><clipPath id="c"><use fill="#fff" xlink:href="#a"/></clipPath><clipPath id="d"><use fill="#fff" xlink:href="#b"/></clipPath></defs><g transform="translate(-371 -2219)"><use fill="#efefef" xlink:href="#a"/><use fill="#fff" fill-opacity="0" stroke="#d2d2d2" stroke-miterlimit="50" stroke-width="4" clip-path="url(&quot;#c&quot;)" xlink:href="#a"/><use fill="#efefef" xlink:href="#b"/><use fill="#fff" fill-opacity="0" stroke="#d2d2d2" stroke-miterlimit="50" stroke-width="4" clip-path="url(&quot;#d&quot;)" xlink:href="#b"/><use fill="#cfcfcf" xlink:href="#e"/><use fill="#bcbcbc" xlink:href="#f"/><use fill="#dadada" xlink:href="#g"/><use fill="#dadada" xlink:href="#h"/><use fill="#dadada" xlink:href="#i"/><use fill="#bcbcbc" xlink:href="#j"/><use fill="#bcbcbc" xlink:href="#k"/><use fill="#bcbcbc" xlink:href="#l"/><use fill="#bcbcbc" xlink:href="#m"/><use fill="#cfcfcf" xlink:href="#n"/><use fill="#cfcfcf" xlink:href="#o"/><use fill="#cfcfcf" xlink:href="#p"/><use fill="#a8a8a8" xlink:href="#q"/><use fill="#a8a8a8" xlink:href="#r"/><use fill="#a8a8a8" xlink:href="#s"/><use fill="#aeafae" xlink:href="#t"/><use fill="#efefef" xlink:href="#u"/><use fill="#efefef" xlink:href="#v"/><use fill="#b7b7b7" xlink:href="#w"/><use fill="#b7b7b7" xlink:href="#x"/></g></svg>