<svg xmlns="http://www.w3.org/2000/svg" xmlns:xlink="http://www.w3.org/1999/xlink" width="43" height="43" viewBox="0 0 43 43"><defs><path id="a" d="M195 273.5a20.5 20.5 0 1 1 41 0 20.5 20.5 0 0 1-41 0z"/><path id="b" d="M226.31 269.39a6.4 6.4 0 0 1-6.39 6.4 7 7 0 0 1-2.26-.38l-3.39 3.39h-2.25v2.25h-2.26v2.26H206v-3.76l7.9-7.9a7.7 7.7 0 0 1-.38-2.26 6.4 6.4 0 0 1 12.79 0zm-3.26-.88c0-1.28-.98-2.25-2.25-2.25-1.28 0-2.26.97-2.26 2.25s.98 2.26 2.26 2.26c1.27 0 2.25-.98 2.25-2.26z"/></defs><g transform="translate(-194 -252)" fill="#fff" fill-opacity="0" stroke="#fff" stroke-miterlimit="50" stroke-width="1.5"><use xlink:href="#a"/><use xlink:href="#b"/></g></svg>