<svg xmlns="http://www.w3.org/2000/svg" xmlns:xlink="http://www.w3.org/1999/xlink" width="43" height="43" viewBox="0 0 43 43"><defs><path id="a" d="M749 584.5a20.5 20.5 0 1 1 41 0 20.5 20.5 0 0 1-41 0z"/><path id="b" d="M780 576.06v16.88c0 1.14-.91 2.06-2.02 2.06a2.04 2.04 0 0 1-2.02-2.06v-.93l-5.99-1.94a1.66 1.66 0 0 1-.83 1.87 1.58 1.58 0 0 1-1.23.1l-5.76-1.91a1.6 1.6 0 0 1-.94-.81 1.65 1.65 0 0 1 .36-1.97l-1.36-.44c-.07.84-.76 1.5-1.6 1.5-.89 0-1.61-.74-1.61-1.65v-4.52c0-.91.72-1.65 1.61-1.65.84 0 1.53.66 1.6 1.5l15.75-5.1v-.93c0-1.14.91-2.06 2.02-2.06 1.11 0 2.02.92 2.02 2.06zm-11.34 13.63l-5.76-1.91a1.09 1.09 0 0 0-.25-.04.82.82 0 0 0-.72 1.2c.1.2.27.34.47.41l5.76 1.9c.2.07.42.05.61-.05.2-.1.34-.27.4-.48a.82.82 0 0 0-.51-1.03zm-9.24-7.45a.82.82 0 0 0-.81-.83c-.44 0-.8.37-.8.83v4.52c0 .46.36.83.8.83.45 0 .81-.37.81-.83zm16.54 8.9v-13.28l-15.73 5.09v3.1zm3.23-15.08c0-.68-.54-1.24-1.21-1.24-.66 0-1.21.56-1.21 1.24v16.88c0 .68.55 1.24 1.21 1.24.67 0 1.21-.56 1.21-1.24z"/></defs><g transform="translate(-748 -563)" fill="#fff"><use fill-opacity="0" stroke="#fff" stroke-miterlimit="50" stroke-width="1.5" xlink:href="#a"/><use xlink:href="#b"/><use fill-opacity="0" stroke="#fff" stroke-miterlimit="50" stroke-width=".5" xlink:href="#b"/></g></svg>