<svg width="21" height="23" viewBox="0 0 21 23" xmlns="http://www.w3.org/2000/svg"><title>log-out</title><g stroke="#222" fill="#222" fill-rule="evenodd"><path d="M1.61 1h12.742c.337 0 .61.26.61.579 0 .32-.273.579-.61.579H2.22v19.101h12.132c.337 0 .61.26.61.579 0 .32-.273.579-.61.579H1.61c-.337 0-.61-.26-.61-.58V1.58S1 1 1.61 1z"/><path d="M15.29 15.308a.558.558 0 0 0 0 .819c.119.113.275.17.43.17a.626.626 0 0 0 .432-.17l3.762-3.57a.558.558 0 0 0 0-.818l-3.762-3.57a.633.633 0 0 0-.863 0 .558.558 0 0 0 0 .819l2.72 2.582H6.61c-.337 0-.61.259-.61.578 0 .32.273.58.61.58h11.4l-2.72 2.58z"/></g></svg>