<svg width="18" height="19" viewBox="0 0 18 19" xmlns="http://www.w3.org/2000/svg"><title>login</title><g fill="#FFF" stroke="#FFF" fill-rule="evenodd"><path d="M16.506 1.004H6.402a.472.472 0 0 0-.484.459c0 .253.216.459.484.459h9.62v15.147h-9.62a.472.472 0 0 0-.484.459c0 .253.216.459.484.459h10.104a.472.472 0 0 0 .484-.46V1.464a.472.472 0 0 0-.484-.46z"/><path d="M8.366 12.284a.443.443 0 0 0 0 .649c.095.09.219.134.343.134a.496.496 0 0 0 .341-.134l2.983-2.83a.442.442 0 0 0 0-.65L9.05 6.624a.502.502 0 0 0-.684 0 .442.442 0 0 0 0 .649l2.158 2.047h-9.04A.472.472 0 0 0 1 9.778c0 .253.217.459.484.459h9.04l-2.158 2.047z"/></g></svg>