<svg xmlns="http://www.w3.org/2000/svg" xmlns:xlink="http://www.w3.org/1999/xlink" width="32" height="31" viewBox="0 0 32 31"><defs><path id="a" d="M12 13a1 1 0 0 1 1-1h30a1 1 0 0 1 1 1v29a1 1 0 0 1-1 1H13.01a1 1 0 0 1-1-1z"/><path id="c" d="M19 21a1 1 0 0 1 1-1h17a1 1 0 0 1 0 2H20a1 1 0 0 1-1-1z"/><path id="d" d="M19 27a1 1 0 0 1 1-1h17a1 1 0 0 1 0 2H20a1 1 0 0 1-1-1z"/><path id="e" d="M19 33a1 1 0 0 1 1-1h17a1 1 0 0 1 0 2H20a1 1 0 0 1-1-1z"/><clipPath id="b"><use fill="#fff" xlink:href="#a"/></clipPath></defs><g transform="translate(-12 -12)"><use fill="#fff" fill-opacity="0" stroke="#b1cb00" stroke-miterlimit="50" stroke-width="4" clip-path="url(&quot;#b&quot;)" xlink:href="#a"/><use fill="#b1cb00" xlink:href="#c"/><use fill="#b1cb00" xlink:href="#d"/><use fill="#b1cb00" xlink:href="#e"/></g></svg>