<svg xmlns="http://www.w3.org/2000/svg" xmlns:xlink="http://www.w3.org/1999/xlink" width="10" height="17" viewBox="0 0 10 17"><defs><path id="a" d="M466.64 235.71a.35.35 0 0 1 .5 0l4.15 4.15c.13.14.13.36 0 .5l-.93.93a.37.37 0 0 1-.5 0l-2.97-2.97-2.97 2.97a.37.37 0 0 1-.5 0l-.93-.93a.37.37 0 0 1 0-.5z"/><path id="b" d="M466.64 251.29c.14.14.36.14.5 0l4.15-4.15a.37.37 0 0 0 0-.5l-.93-.93a.37.37 0 0 0-.5 0l-2.97 2.97-2.97-2.97a.37.37 0 0 0-.5 0l-.93.93a.37.37 0 0 0 0 .5z"/></defs><g transform="translate(-462 -235)" fill="#b1cb00"><use xlink:href="#a"/><use xlink:href="#b"/></g></svg>