<svg xmlns="http://www.w3.org/2000/svg" xmlns:xlink="http://www.w3.org/1999/xlink" width="12" height="15" viewBox="0 0 12 15"><defs><path id="a" d="M408.06 3133.24c0 .69-.59 1.24-1.31 1.24-.72 0-1.31-.55-1.31-1.24 0-.68.59-1.24 1.31-1.24.72 0 1.31.56 1.31 1.24zm-3.37 0c0 1.07.93 1.95 2.06 1.95.42 0 .83-.12 1.17-.34l1 .95c.14.13.4.13.54 0a.35.35 0 0 0-.01-.51l-1-.95c.23-.31.36-.69.36-1.1H415v9.05h-4.54c-.18.01-.34.18-.33.35v4.26H403v-13.66zm9.94 9.76l-3.75 3.54V3143z"/></defs><use fill="#c5c5c5" xlink:href="#a" transform="translate(-403 -3132)"/></svg>