<svg width="111" height="31" viewBox="0 0 111 31" xmlns="http://www.w3.org/2000/svg"><title>logo_proffile_weiß</title><g fill="none" fill-rule="evenodd"><path d="M.009 8.018h4.783c1.75 0 3.032.405 4.126 1.56 1.095 1.153 1.438 2.558 1.438 5.21 0 1.935-.156 3.244-.905 4.461-.877 1.435-2.284 2.31-4.628 2.31H3.198v8.672H.008V8.018zm3.189 10.545h1.53c2.596 0 2.627-1.529 2.627-3.744 0-2.09 0-3.806-2.501-3.806H3.198v7.55zm9.535-10.545h5.127c3.782 0 5.627 2.215 5.627 6.52 0 2.558-.718 4.43-2.751 5.553l3.439 10.14h-3.376l-2.97-9.484h-1.907v9.484h-3.189V8.018zm3.189 9.92h1.812c2.22 0 2.564-1.247 2.564-3.462 0-2.247-.375-3.463-2.719-3.463h-1.657v6.926zm9.941-4.492c0-3.618 2.75-5.428 5.347-5.428 2.593 0 5.346 1.81 5.346 5.428v11.731c0 3.62-2.753 5.43-5.346 5.43-2.596 0-5.347-1.81-5.347-5.43v-11.73zm3.19 11.731c0 1.53 1 2.247 2.157 2.247 1.156 0 2.156-.717 2.156-2.247v-11.73c0-1.53-1-2.246-2.156-2.246-1.157 0-2.157.717-2.157 2.245v11.731zm34.723 5.054h3.189V8.018h-3.189zM70.06 8.018h3.189V27.05h6.314v3.181H70.06V8.018m11.567 0h9.504v2.995h-6.316v6.52h5.504v2.995h-5.504v6.522h6.316v3.181h-9.504V8.018M49.23 11.032V8.018h-6.823l-2.679 2.673v19.54h3.16v-9.45h5.53v-3.029h-5.53v-6.72h6.343m12.061 0V8.018H54.47l-2.68 2.673v19.54h3.161v-9.45h5.53v-3.029h-5.53v-6.72h6.342" fill="#FFFFFE"/><path d="M103.254 15.616c4.205 0 7.614-3.402 7.614-7.598 0-4.197-3.409-7.599-7.614-7.599S95.64 3.821 95.64 8.018c0 4.196 3.41 7.598 7.614 7.598" fill="#ABCC3A"/><path fill="#172F48" d="M102.989 5.178V4.094h-2.455l-.963.961v7.028h1.137V8.684h1.988v-1.09h-1.988V5.179h2.28m4.339-.115V3.98h-2.454l-.964.961v7.028h1.137V8.57h1.989V7.48h-1.99V5.065h2.282"/></g></svg>